<?xml version="1.0" encoding="UTF-8"?>
<!DOCTYPE svg PUBLIC "-//W3C//DTD SVG 1.1//EN" "http://www.w3.org/Graphics/SVG/1.1/DTD/svg11.dtd">
<!-- Creator: CorelDRAW (Evaluation Version) -->
<svg xmlns="http://www.w3.org/2000/svg" xml:space="preserve" width="25.0588mm" height="9.652mm" version="1.1" style="shape-rendering:geometricPrecision; text-rendering:geometricPrecision; image-rendering:optimizeQuality; fill-rule:evenodd; clip-rule:evenodd"
viewBox="0 0 2505.88 965.2"
 xmlns:xlink="http://www.w3.org/1999/xlink"
 xmlns:xodm="http://www.corel.com/coreldraw/odm/2003">
 <defs>
  <style type="text/css">
   <![CDATA[
    .fil3 {fill:#029DDD}
    .fil2 {fill:#44BEE2}
    .fil0 {fill:#FEFEFE;fill-rule:nonzero}
    .fil1 {fill:#44BEE2;fill-rule:nonzero}
    .fil8 {fill:url(#id0)}
    .fil4 {fill:url(#id1)}
    .fil9 {fill:url(#id2)}
    .fil6 {fill:url(#id3)}
    .fil7 {fill:url(#id4)}
    .fil5 {fill:url(#id5)}
   ]]>
  </style>
  <linearGradient id="id0" gradientUnits="userSpaceOnUse" x1="240.89" y1="414.76" x2="208.84" y2="294.23">
   <stop offset="0" style="stop-opacity:1; stop-color:#0071A6"/>
   <stop offset="1" style="stop-opacity:1; stop-color:#44BEE2"/>
  </linearGradient>
  <linearGradient id="id1" gradientUnits="userSpaceOnUse" xlink:href="#id0" x1="671.05" y1="414.76" x2="703.1" y2="294.23">
  </linearGradient>
  <linearGradient id="id2" gradientUnits="userSpaceOnUse" xlink:href="#id0" x1="90.01" y1="414.76" x2="122.06" y2="294.23">
  </linearGradient>
  <linearGradient id="id3" gradientUnits="userSpaceOnUse" xlink:href="#id0" x1="873.78" y1="414.76" x2="905.84" y2="294.23">
  </linearGradient>
  <linearGradient id="id4" gradientUnits="userSpaceOnUse" xlink:href="#id0" x1="345.91" y1="414.76" x2="313.86" y2="294.23">
  </linearGradient>
  <linearGradient id="id5" gradientUnits="userSpaceOnUse" xlink:href="#id0" x1="776.07" y1="414.76" x2="808.12" y2="294.23">
  </linearGradient>
 </defs>
 <g id="Layer_x0020_1">
  <metadata id="CorelCorpID_0Corel-Layer"/>
  <g id="_2662527897248">
   <path class="fil0" d="M610.84 536.03c-18.93,-27.77 -42.92,-41.66 -77,-41.66 -47.65,0 -75.42,27.46 -75.42,65.64 0,45.76 30.29,61.22 65.32,74.79 34.71,13.57 44.18,17.36 44.18,34.72 0,21.14 -19.88,26.19 -30.93,26.19 -19.88,0 -35.34,-11.99 -43.86,-31.56l-39.45 26.19c20.83,37.24 44.81,47.02 85.52,47.02 11.68,0 30.93,-3.47 44.5,-11.67 32.82,-19.88 32.82,-50.81 32.82,-61.22 0,-21.78 -10.1,-36.93 -12.94,-40.71 -9.15,-12.63 -25.56,-22.09 -39.45,-27.14l-29.34 -10.73c-14.21,-5.05 -29.35,-11.68 -29.35,-28.09 0,-2.52 0.63,-22.41 27.14,-22.41 17.98,0 32.82,12 40.08,25.88l38.18 -25.24zm42.6 194.71l43.55 0 0 -167.26 -43.55 0 0 167.26zm43.55 -232.9l-43.55 0 0 37.87 43.55 0 0 -37.87zm122.13 65.64l-17.04 34.72c-0.63,1.26 -3.16,7.88 -3.79,9.15l-1.26 0c-0.63,-1.27 -3.47,-7.58 -4.42,-9.15l-16.72 -34.72 -46.39 0 44.49 82.37 -46.7 84.89 46.7 0 19.25 -38.82 3.79 -8.52 1.58 0c12.94,27.14 14.51,29.98 23.67,47.34l46.7 0 -47.65 -85.21 44.18 -82.05 -46.39 0zm316.84 -27.45c-18.93,-27.77 -42.92,-41.66 -77,-41.66 -47.65,0 -75.42,27.46 -75.42,65.64 0,45.76 30.29,61.22 65.32,74.79 34.71,13.57 44.18,17.36 44.18,34.72 0,21.14 -19.88,26.19 -30.92,26.19 -19.89,0 -35.35,-11.99 -43.87,-31.56l-39.45 26.19c20.83,37.24 44.81,47.02 85.52,47.02 11.68,0 30.93,-3.47 44.5,-11.67 32.82,-19.88 32.82,-50.81 32.82,-61.22 0,-21.78 -10.1,-36.93 -12.94,-40.71 -9.15,-12.63 -25.56,-22.09 -39.45,-27.14l-29.34 -10.73c-14.21,-5.05 -29.35,-11.68 -29.35,-28.09 0,-2.52 0.63,-22.41 27.14,-22.41 17.98,0 32.82,12 40.08,25.88l38.18 -25.24zm25.56 59.64l24.93 0 0 91.2c0,43.23 32.82,45.76 51.76,45.76 6.62,0 8.52,-0.32 26.51,-2.53l0 -34.39c-9.16,0.94 -9.79,0.94 -12.31,0.94 -22.09,0 -22.09,-8.83 -22.09,-14.2l0 -86.78 32.19 0 0 -32.19 -32.19 0 0 -60.59 -43.87 0 0 60.59 -24.93 0 0 32.19zm148.01 11.68c9.15,-7.89 21.14,-18.31 40.39,-18.31 8.52,0 15.46,3.16 18.3,7.26 3.16,4.42 3.16,9.15 3.16,25.56 -14.83,0.95 -31.87,4.42 -47.97,11.68 -30.29,13.88 -35.97,38.5 -35.97,53.96 0,38.5 27.14,47.66 44.81,47.66 14.51,0 26.82,-7.26 29.03,-8.53 6.94,-4.1 10.1,-7.89 15.46,-14.83l1.27 0c4.1,7.58 12.94,20.83 34.39,20.83l12.94 0 0 -30.3c-8.52,-0.31 -9.78,-9.46 -9.78,-10.41l0 -82.05c0,-8.84 0,-21.46 -12.62,-34.08 -13.57,-13.57 -38.5,-16.41 -50.18,-16.41 -35.66,0 -49.86,11.04 -64.06,22.09l20.83 25.88zm61.53 63.74c0,11.05 -3.78,31.24 -23.98,31.24 -10.73,0 -17.67,-9.15 -17.67,-20.51 0,-28.71 31.87,-34.71 41.65,-36.6l0 25.87zm84.26 59.65l45.13 0 0 -98.78c17.99,-15.15 29.66,-15.15 48.28,-15.15l0 -57.75c-16.09,0.63 -34.08,5.68 -49.86,42.29l-1.26 0 0 -37.87 -42.29 0 0 167.26zm305.48 0l0 -21.15 -27.45 0 0 -190.29 27.45 0 0 -20.2 -105.72 0 0 20.2 27.14 0 0 190.92 -27.14 0 0 20.52 105.72 0zm30.93 0l43.23 0 0 -116.14c11.68,-10.41 18.94,-16.4 28.09,-16.4 15.78,0 15.78,15.77 15.78,22.72l0 109.82 43.23 0 0 -116.77c14.2,-13.88 21.14,-15.46 27.46,-15.46 14.51,0 16.41,10.41 16.41,18.3l0 113.93 43.23 0 0 -105.41c0,-11.04 -0.63,-31.55 -4.1,-41.65 -5.37,-15.78 -19.25,-24.3 -35.98,-24.3 -28.72,0 -42.29,19.25 -50.49,31.24l-1.58 0c-2.21,-8.84 -7.89,-31.24 -36.29,-31.24 -7.57,0 -31.24,2.21 -48.28,35.34l-1.27 0 0 -31.24 -39.44 0 0 167.26zm261.61 54.59l44.5 0 0 -77.63 2.21 0c8.83,13.57 21.77,24.61 41.97,24.61 18.62,0 28.71,-7.25 34.71,-16.4 8.21,-12.63 8.21,-23.99 8.21,-61.23 0,-25.24 0,-49.54 -3.48,-63.74 -3.15,-12.94 -11.36,-32.51 -39.76,-32.51 -19.88,0 -35.34,9.79 -44.81,29.98l-2.52 0 0 -26.51 -41.03 0 0 223.43zm44.5 -175.77c5.36,-5.69 13.57,-12 24.61,-12 5.37,0 14.52,0.64 16.73,16.73 0.63,4.1 1.26,32.5 1.26,38.18 0,31.25 0,44.82 -17.67,44.82 -9.79,0 -17.68,-6.63 -24.93,-12.31l0 -75.42zm245.2 46.7c0,-43.23 0,-59.01 -10.1,-73.84 -8.2,-12.31 -21.14,-23.67 -48.28,-23.67 -13.57,0 -38.19,2.21 -51.13,23.67 -11.36,18.61 -11.36,46.07 -11.36,75.42 0,1.26 0.95,21.14 4.11,33.45 10.09,38.5 43.86,42.92 64.37,42.92 22.09,0 35.98,-5.05 53.02,-11.05l-4.73 -33.45c-19.88,9.78 -30.93,12.31 -44.5,12.31 -30.93,0 -30.93,-28.72 -30.61,-45.76l79.21 0zm-79.21 -24.93c-0.32,-21.14 -0.63,-44.5 20.2,-44.5 22.09,0 22.4,19.25 22.4,44.5l-42.6 0zm192.19 -67.85l-17.04 34.72c-0.64,1.26 -3.16,7.88 -3.79,9.15l-1.26 0c-0.64,-1.27 -3.47,-7.58 -4.42,-9.15l-16.73 -34.72 -46.39 0 44.5 82.37 -46.71 84.89 46.71 0 19.25 -38.82 3.79 -8.52 1.57 0c12.94,27.14 14.52,29.98 23.67,47.34l46.71 0 -47.65 -85.21 44.18 -82.05 -46.39 0z"/>
   <path class="fil1" d="M496.13 843.53c-0.98,4.17 -2.69,11.4 -3.43,14.95 -0.98,5.51 -2.82,16.05 -3.8,19.97 -0.36,1.59 -0.61,2.45 -1.47,2.45 -0.49,0 -1.1,-0.73 -1.22,-1.35 -0.25,-1.34 -1.72,-9.18 -2.33,-12.49 -1.1,-5.88 -4.04,-20.46 -4.65,-23.16l-9.56 -39.21 -12.01 0 23.04 89.93 13.1 0 8.21 -34.55c2.7,-11.15 4.54,-21.31 6.37,-32.34l0.98 -5.64c0,-0.37 0.5,-0.61 0.74,-0.61 0.24,0 0.61,0.24 0.61,0.61 0.37,1.72 0.62,3.68 0.98,5.64l3.31 17.27c0.25,1.11 1.1,6.25 1.35,7.48 0.49,2.2 1.1,5.14 1.96,8.45l8.57 33.69 13.11 0 22.43 -89.93 -11.03 0 -8.33 35.54c-3.19,13.47 -3.55,15.68 -7.35,36.63 -0.13,0.98 -0.25,2.69 -0.49,3.43 -0.13,0.37 -0.62,0.73 -0.98,0.73 -0.98,0 -1.11,-1.22 -1.72,-4.65 -3.67,-19.36 -4.41,-22.3 -7.35,-34.18l-9.31 -37.5 -10.29 0 -9.44 38.84zm79.89 51.09l11.02 0 0 -43.61c2.33,-3.43 5.64,-8.33 8.82,-10.91 2.33,-1.84 4.78,-2.94 7.11,-2.94 4.66,0 6.13,3.07 6.13,7.72l0 49.74 10.9 0 0 -50.11c0,-9.31 -3.68,-15.56 -12.74,-15.56 -5.52,0 -11.4,1.84 -16.18,8.95 -1.1,1.59 -2.45,3.79 -3.06,3.79 -0.73,0 -0.98,-0.36 -0.98,-1.22l0 -37.74 -11.02 4.54 0 87.35zm107.32 -36.75c-0.37,-15.68 -8.57,-28.79 -24.01,-28.79 -5.76,0 -25.12,2.69 -25.12,35.28 0,20.09 10.42,31.86 25.24,31.86 11.64,0 16.66,-4.41 20.83,-8.09l-6.37 -5.88c-1.96,1.84 -5.52,5.39 -12.99,5.39 -11.39,0 -15.56,-9.56 -15.44,-23.89l37.98 0 -0.12 -5.88zm-37.49 -1.59c0.12,-2.21 0.25,-6.5 2.21,-11.15 2.08,-4.9 6.24,-8.09 11.51,-8.09 8.7,0 12.87,8.21 12.87,19.24l-26.59 0zm52.93 38.34l11.39 0 0 -36.63c4.54,-6.25 10.79,-11.39 18.38,-11.39 1.35,0 2.7,0.12 4.04,0.36l0 -18.13c-1.71,0.49 -9.55,3.68 -17.76,15.93 -0.61,0.86 -3.06,5.02 -3.8,5.88l-1.35 0c-0.36,0 -0.61,-0.74 -0.61,-1.47l0 -20.34 -10.29 4.17 0 61.62zm93.48 -36.75c-0.37,-15.68 -8.57,-28.79 -24.01,-28.79 -5.76,0 -25.12,2.69 -25.12,35.28 0,20.09 10.42,31.86 25.24,31.86 11.64,0 16.66,-4.41 20.83,-8.09l-6.37 -5.88c-1.96,1.84 -5.52,5.39 -12.99,5.39 -11.39,0 -15.56,-9.56 -15.44,-23.89l37.98 0 -0.12 -5.88zm-37.49 -1.59c0.12,-2.21 0.25,-6.5 2.21,-11.15 2.08,-4.9 6.24,-8.09 11.51,-8.09 8.7,0 12.87,8.21 12.87,19.24l-26.59 0zm148.13 40.18c-5.76,0.12 -9.44,-1.1 -13.48,-7.1 8.7,-9.56 11.27,-25.49 11.27,-39.46 0,-6.24 -0.73,-16.78 -3.43,-24.75 -3.67,-10.78 -11.64,-21.8 -26.83,-21.8 -6.62,0 -15.56,1.34 -23.03,13.35 -5.15,8.21 -7.36,20.71 -7.36,34.43 0,24.01 8.34,46.19 30.39,46.19 2.21,0 4.29,-0.25 6.13,-0.61 1.83,-0.37 3.55,-0.98 5.14,-1.72 6.62,13.72 14.95,13.85 21.2,13.97l0 -12.5zm-14.95 -46.19c0,13.23 -1.72,23.28 -5.64,29.16l-8.45 -11.88 -6.25 4.41 8.33 13.11c-1.71,0.73 -3.55,1.1 -5.63,1.1 -15.81,0 -17.4,-24.01 -17.4,-35.41 0,-9.43 0.98,-17.4 2.69,-22.79 2.58,-8.45 7.36,-13.84 15.07,-13.84 16.18,0 17.28,24.26 17.28,36.14zm72.41 42.27l0 -61.99 -10.66 0 0 43.12c-6.25,8.83 -10.05,14.34 -15.44,14.34 -6.61,0 -6.61,-8.09 -6.61,-11.27l0 -46.19 -11.03 0 0 49.37c0,11.76 5.88,16.17 12.86,16.17 5.15,0 9.93,-2.32 13.73,-6.37 1.83,-2.08 3.67,-5.02 5.14,-6.61 0.37,-0.37 0.61,-0.37 1.1,-0.37 0.49,0 0.74,1.1 0.74,1.59l0 11.89 10.17 -3.68zm59.67 -44.6c0,-6.37 -1.35,-11.15 -5.88,-14.7 -3.93,-3.06 -10.17,-4.29 -14.71,-4.29 -10.29,0 -16.05,3.07 -24.01,7.36l4.78 8.2c5.51,-3.43 12.13,-6.73 18.5,-6.73 10.04,0 10.04,6.24 10.04,8.82l0 8.33c-10.53,0.12 -20.33,1.96 -27.32,7.1 -5.63,4.17 -9.43,10.17 -9.43,18.14 0,8.21 6.49,15.68 15.56,15.68 5.76,0 10.53,-0.61 17.89,-6.98 0.61,-0.49 3.3,-3.31 4.04,-3.8l0.37 0.24c0.36,2.94 2.2,5.39 3.18,6.37 3.31,3.68 7.11,4.05 12.5,4.29l0 -8.7c-5.51,0.25 -5.51,-3.67 -5.51,-6.98l0 -32.35zm-11.28 31c-3.3,3.31 -8.94,9.07 -16.05,9.07 -5.88,0 -9.55,-4.66 -9.55,-10.05 0,-11.27 12.13,-16.42 25.6,-16.54l0 17.52zm33.08 15.68l11.03 0 0 -91.27 -1.59 0 -9.44 3.92 0 87.35zm32.47 -75.96l14.21 0 0 -11.64 -14.21 0 0 11.64zm1.72 75.96l11.02 0 0 -64.07 -11.02 0 0 64.07zm23.89 -51.94l9.06 0 0 39.45c0,12.74 11.77,13.72 14.71,13.72 3.67,0 9.19,-1.35 12.49,-3.19l0 -9.68c-3.06,1.6 -7.1,3.56 -10.78,3.56 -5.39,0 -5.39,-4.54 -5.39,-5.76l0 -38.1 10.78 0 0 -6.99 -10.17 0 0 -24.5 -1.22 0 -10.29 9.92 0 14.58 -9.19 0 0 6.99zm42.27 72.28c2.94,0.86 4.41,1.1 7.23,1.1 10.9,0 15.31,-3.55 21.31,-22.29l20.22 -63.22 -10.78 0 -8.82 29.28c-1.47,4.9 -2.21,7.59 -3.68,13.84l-0.73 0.37c-0.49,-0.37 -1.11,-2.57 -1.72,-4.78 -0.37,-1.35 -2.08,-7.59 -2.57,-9.06l-9.56 -29.65 -11.64 0 20.71 59.42c-4.17,12 -5.76,16.17 -11.4,16.17 -4.16,0 -5.76,-2.33 -6.37,-3.19l-2.2 0 0 12.01zm144.81 -20.34l21.57 -81.35c0.24,-0.61 0.73,-0.86 1.22,-0.86 0.37,0 0.86,0.37 0.86,1.11l0 81.1 10.17 0 0 -89.93 -18.99 0 -18.62 69.72c-0.13,0.73 -0.74,1.22 -1.47,1.22 -0.49,0 -0.86,-0.36 -1.11,-1.1l-19.11 -69.84 -18.74 0 0 89.93 10.16 0 0 -81.59c0,-0.74 0.62,-1.23 1.11,-1.23 0.49,0 0.73,0.37 0.85,0.74l21.81 82.08 10.29 0zm103.53 -36.75c-0.36,-15.68 -8.57,-28.79 -24.01,-28.79 -5.76,0 -25.12,2.69 -25.12,35.28 0,20.09 10.42,31.86 25.24,31.86 11.64,0 16.67,-4.41 20.83,-8.09l-6.37 -5.88c-1.96,1.84 -5.51,5.39 -12.99,5.39 -11.39,0 -15.56,-9.56 -15.43,-23.89l37.98 0 -0.13 -5.88zm-37.49 -1.59c0.13,-2.21 0.25,-6.5 2.21,-11.15 2.08,-4.9 6.25,-8.09 11.52,-8.09 8.69,0 12.86,8.21 12.86,19.24l-26.59 0zm98.75 1.59c-0.36,-15.68 -8.57,-28.79 -24.01,-28.79 -5.76,0 -25.12,2.69 -25.12,35.28 0,20.09 10.42,31.86 25.24,31.86 11.64,0 16.66,-4.41 20.83,-8.09l-6.37 -5.88c-1.96,1.84 -5.51,5.39 -12.99,5.39 -11.39,0 -15.56,-9.56 -15.43,-23.89l37.98 0 -0.13 -5.88zm-37.49 -1.59c0.13,-2.21 0.25,-6.5 2.21,-11.15 2.08,-4.9 6.25,-8.09 11.51,-8.09 8.7,0 12.87,8.21 12.87,19.24l-26.59 0zm45.95 -13.6l9.06 0 0 39.45c0,12.74 11.77,13.72 14.71,13.72 3.67,0 9.19,-1.35 12.49,-3.19l0 -9.68c-3.06,1.6 -7.1,3.56 -10.78,3.56 -5.39,0 -5.39,-4.54 -5.39,-5.76l0 -38.1 10.78 0 0 -6.99 -10.17 0 0 -24.5 -1.22 0 -10.29 9.92 0 14.58 -9.19 0 0 6.99zm80.13 -8.09c-7.72,-4.78 -12.62,-5.02 -17.16,-5.02 -10.17,0 -19.11,6.49 -19.11,17.64 0,8.45 4.41,13.35 16.17,19.11 10.42,5.15 12.99,6.74 12.99,12.01 0,5.27 -3.92,10.05 -10.91,10.05 -5.14,0 -8.82,-1.6 -14.94,-6.5l-4.29 8.33c3.8,2.45 9.56,6.13 18.87,6.13 12.25,0 21.07,-7.96 21.07,-19.36 0,-10.9 -8.33,-15.07 -11.88,-16.78l-10.3 -5.15c-3.92,-1.96 -7.71,-4.41 -7.71,-9.19 0,-4.17 2.81,-8.45 9.55,-8.45 6.37,0 9.68,2.45 14.46,5.88l3.19 -8.7zm105.61 -6c-0.61,-4.29 -1.84,-11.4 -7.97,-17.65 -5.51,-5.63 -12.98,-7.35 -18.74,-7.35 -25.36,0 -30.63,26.22 -30.63,46.93 0,43.25 22.18,47.04 29.53,47.04 3.43,0 12.25,0 19.97,-7.71 5.39,-5.4 7.96,-13.11 8.45,-20.22l-12.25 -2.21c-0.25,2.95 -0.74,8.09 -3.19,12.26 -1.1,1.71 -4.78,6.86 -11.88,6.86 -14.83,0 -18.38,-19.24 -18.38,-38.96 0,-0.98 0.37,-13.48 3.68,-21.57 1.96,-4.77 5.75,-11.76 14.7,-11.76 9.8,0 13.97,7.84 14.95,16.54l11.76 -2.2zm15.07 32.83c0,11.03 2.08,19.73 6.86,25.73 2.45,3.06 7.1,8.82 18.25,8.82 15.81,0 25.61,-13.84 25.61,-33.08 0,-6.25 -1.84,-15.68 -4.78,-21.32 -3.31,-6.25 -9.19,-12.62 -21.32,-12.62 -13.23,0 -24.62,10.17 -24.62,32.47zm25.11 -23.28c1.6,0 3.19,0.25 4.66,0.86 2.94,1.23 5.64,3.92 7.11,8.09 1.47,4.16 2.2,10.9 2.2,15.19 0,9.19 -2.08,24.13 -13.84,24.13 -12.75,0 -14.46,-18.13 -14.46,-23.03 0,-9.92 2.2,-25.24 14.33,-25.24zm81.85 9.8c0,-6.37 -1.35,-11.15 -5.88,-14.7 -3.92,-3.06 -10.17,-4.29 -14.71,-4.29 -10.29,0 -16.05,3.07 -24.01,7.36l4.78 8.2c5.51,-3.43 12.13,-6.73 18.5,-6.73 10.05,0 10.05,6.24 10.05,8.82l0 8.33c-10.54,0.12 -20.34,1.96 -27.33,7.1 -5.63,4.17 -9.43,10.17 -9.43,18.14 0,8.21 6.49,15.68 15.56,15.68 5.76,0 10.54,-0.61 17.89,-6.98 0.61,-0.49 3.31,-3.31 4.04,-3.8l0.37 0.24c0.37,2.94 2.2,5.39 3.18,6.37 3.31,3.68 7.11,4.05 12.5,4.29l0 -8.7c-5.51,0.25 -5.51,-3.67 -5.51,-6.98l0 -32.35zm-11.27 31c-3.31,3.31 -8.95,9.07 -16.06,9.07 -5.88,0 -9.55,-4.66 -9.55,-10.05 0,-11.27 12.13,-16.42 25.61,-16.54l0 17.52zm23.03 -36.26l9.07 0 0 39.45c0,12.74 11.76,13.72 14.7,13.72 3.67,0 9.19,-1.35 12.49,-3.19l0 -9.68c-3.06,1.6 -7.1,3.56 -10.78,3.56 -5.39,0 -5.39,-4.54 -5.39,-5.76l0 -38.1 10.78 0 0 -6.99 -10.16 0 0 -24.5 -1.23 0 -10.29 9.92 0 14.58 -9.19 0 0 6.99zm49.25 -24.02l14.21 0 0 -11.64 -14.21 0 0 11.64zm1.72 75.96l11.02 0 0 -64.07 -11.02 0 0 64.07zm31.12 0l11.02 0 0 -43.37c0,-0.12 0.98,-1.84 4.78,-6.86 0.61,-0.73 5.27,-6.86 11.03,-6.86 6.37,0 6.37,6.74 6.37,8.45l0 48.64 10.78 0 0 -48.88c0,-9.31 -2.08,-12.13 -4.66,-13.85 -2.45,-1.71 -5.39,-2.45 -8.33,-2.45 -6.49,0 -11.64,3.07 -15.43,8.21l-2.45 3.31c-0.62,0.73 -1.47,1.72 -2.09,1.72 -0.61,0 -0.98,-0.74 -0.98,-1.23l0 -12.5 -10.04 4.05 0 61.62zm96.54 -54.76c0,1.1 -0.61,1.35 -1.1,1.59 -0.74,-0.37 -0.74,-0.61 -1.72,-2.33 -2.57,-4.9 -6.73,-10.04 -16.54,-10.04 -11.15,0 -20.33,11.51 -20.33,26.83 0,6.61 0.24,13.84 3.67,20.7 3.06,6.13 8.58,11.52 16.91,11.52 8.94,0 13.48,-5.88 14.58,-7.84 1.1,-1.96 1.22,-2.21 2.08,-2.21l0.49 0.62 0 9.31c0,2.94 0,10.04 -5.27,13.72 -0.37,0.24 -4.16,2.94 -10.17,2.94 -6.98,0 -8.94,-2.33 -10.65,-4.53l-4.54 0 0 11.15c6.37,1.71 12.99,1.96 15.07,1.96 7.6,0 12.5,-2.09 14.21,-2.82 8.21,-3.43 10.54,-11.03 10.66,-11.64 0.37,-1.23 1.47,-7.23 1.47,-10.78l0 -57.71 -8.82 0 0 9.56zm-16.17 39.33c-11.64,0 -12.62,-14.83 -12.62,-18.87 0,-5.64 0,-23.03 12.74,-23.03 7.84,0 14.58,6.37 14.58,21.31 0,17.65 -10.54,20.59 -14.7,20.59zm81.84 15.43l58.2 0 0 -11.39 -45.09 0 0 -30.02 31.49 0 0 -11.39 -31.73 0 0 -26.1 43 0 0 -11.03 -55.87 0 0 89.93zm98.39 -41.41c-0.13,0.25 -0.62,0.49 -0.86,0.62 -0.25,-0.13 -0.37,-0.13 -0.49,-0.37l-12.13 -22.91 -13.11 0 19.36 31.85 -19.48 32.22 12.25 0 12.86 -24.38c0.13,-0.12 0.49,-0.12 0.62,-0.24 0.12,0 0.24,0.12 0.36,0.24l12.99 24.38 12.87 0 -19.85 -32.95 18.86 -31.12 -12.25 0 -12 22.66zm74.98 7.84c0,20.22 -6.5,25 -11.89,25 -6.86,0 -15.31,-5.27 -15.31,-24.38 0,-10.91 5.27,-24.26 14.7,-24.26 11.52,0 12.5,16.91 12.5,23.64zm-37.62 55.01l10.79 0 0 -30.13c0,-0.62 0.12,-1.72 0.61,-1.72 0.49,0 0.98,0.37 2.69,3.06 3.68,5.76 9.8,8.21 13.97,8.21 11.27,0 20.71,-11.39 20.71,-33.94 0,-7.35 -1.72,-16.66 -5.27,-23.28 -2.94,-5.51 -8.58,-9.92 -15.56,-9.92 -12.5,0 -15.32,13.23 -16.54,14.09 -0.25,0.25 -0.61,0.37 -0.86,0.37 -0.24,0 -0.86,-0.49 -0.86,-1.47l0 -13.72 -9.68 4.28 0 84.17zm108.07 -58.19c-0.37,-15.68 -8.58,-28.79 -24.02,-28.79 -5.76,0 -25.11,2.69 -25.11,35.28 0,20.09 10.41,31.86 25.23,31.86 11.64,0 16.67,-4.41 20.83,-8.09l-6.37 -5.88c-1.96,1.84 -5.51,5.39 -12.98,5.39 -11.4,0 -15.57,-9.56 -15.44,-23.89l37.98 0 -0.12 -5.88zm-37.49 -1.59c0.12,-2.21 0.24,-6.5 2.2,-11.15 2.08,-4.9 6.25,-8.09 11.52,-8.09 8.7,0 12.86,8.21 12.86,19.24l-26.58 0zm52.92 38.34l11.4 0 0 -36.63c4.53,-6.25 10.78,-11.39 18.38,-11.39 1.34,0 2.69,0.12 4.04,0.36l0 -18.13c-1.72,0.49 -9.56,3.68 -17.77,15.93 -0.61,0.86 -3.06,5.02 -3.79,5.88l-1.35 0c-0.37,0 -0.62,-0.74 -0.62,-1.47l0 -20.34 -10.29 4.17 0 61.62zm43.13 -51.94l9.07 0 0 39.45c0,12.74 11.76,13.72 14.7,13.72 3.67,0 9.19,-1.35 12.5,-3.19l0 -9.68c-3.07,1.6 -7.11,3.56 -10.78,3.56 -5.4,0 -5.4,-4.54 -5.4,-5.76l0 -38.1 10.79 0 0 -6.99 -10.17 0 0 -24.5 -1.23 0 -10.29 9.92 0 14.58 -9.19 0 0 6.99zm49.25 -24.02l14.22 0 0 -11.64 -14.22 0 0 11.64zm1.72 75.96l11.03 0 0 -64.07 -11.03 0 0 64.07zm63.22 -60.03c-7.72,-4.78 -12.62,-5.02 -17.15,-5.02 -10.17,0 -19.12,6.49 -19.12,17.64 0,8.45 4.41,13.35 16.18,19.11 10.41,5.15 12.98,6.74 12.98,12.01 0,5.27 -3.92,10.05 -10.9,10.05 -5.15,0 -8.82,-1.6 -14.95,-6.5l-4.29 8.33c3.8,2.45 9.56,6.13 18.87,6.13 12.25,0 21.07,-7.96 21.07,-19.36 0,-10.9 -8.33,-15.07 -11.88,-16.78l-10.29 -5.15c-3.92,-1.96 -7.72,-4.41 -7.72,-9.19 0,-4.17 2.82,-8.45 9.56,-8.45 6.37,0 9.67,2.45 14.45,5.88l3.19 -8.7zm61.14 23.28c-0.37,-15.68 -8.58,-28.79 -24.02,-28.79 -5.76,0 -25.11,2.69 -25.11,35.28 0,20.09 10.41,31.86 25.23,31.86 11.64,0 16.67,-4.41 20.83,-8.09l-6.37 -5.88c-1.96,1.84 -5.51,5.39 -12.98,5.39 -11.4,0 -15.57,-9.56 -15.44,-23.89l37.98 0 -0.12 -5.88zm-37.49 -1.59c0.12,-2.21 0.24,-6.5 2.2,-11.15 2.08,-4.9 6.25,-8.09 11.52,-8.09 8.7,0 12.86,8.21 12.86,19.24l-26.58 0z"/>
   <path class="fil0" d="M2059.05 448.85c12.3,0 13.82,0 17.12,1.27 2.78,1.14 6.21,3.04 6.21,12.05 0,9.53 -5.83,12.32 -7.48,12.95 -2.41,1.01 -6.09,1.01 -15.85,1.01l0 -27.28zm-20.54 77.73l20.54 0 0 -34.83 11.16 -0.38c7.22,-0.25 14.58,-0.63 21.3,-4.69 4.18,-2.54 12.17,-9.4 12.17,-23.88 0,-9.26 -2.66,-16.74 -8.5,-21.93 -4.94,-4.44 -12.29,-7.36 -25.99,-7.36l-30.68 0 0 93.07zm77.34 -67.2l18.89 67.2 17.25 0 17.75 -67.2 -17.12 0 -6.34 25.23c-1.39,5.33 -1.65,6.85 -2.91,12.05l-0.64 0 -2.66 -10.78 -6.85 -26.5 -17.37 0zm60.61 12.93l10.02 0 0 36.64c0,17.38 13.18,18.39 20.79,18.39 2.66,0 3.42,-0.13 10.65,-1.01l0 -13.82c-3.67,0.37 -3.93,0.37 -4.94,0.37 -8.88,0 -8.88,-3.55 -8.88,-5.7l0 -34.87 12.93 0 0 -12.93 -12.93 0 0 -24.35 -17.62 0 0 24.35 -10.02 0 0 12.93zm55.28 54.27l19.4 0 0 -19.91 -19.4 0 0 19.91zm59.09 0l61.75 0 0 -17.37 -40.95 0 0 -75.7 -20.8 0 0 93.07zm69.87 -54.27l10.01 0 0 36.64c0,17.38 13.19,18.39 20.8,18.39 2.66,0 3.42,-0.13 10.65,-1.01l0 -13.82c-3.68,0.37 -3.93,0.37 -4.95,0.37 -8.87,0 -8.87,-3.55 -8.87,-5.7l0 -34.87 12.93 0 0 -12.93 -12.93 0 0 -24.35 -17.63 0 0 24.35 -10.01 0 0 12.93zm88.88 -4.69c-2.28,-3.55 -6.47,-10.14 -17.62,-10.14 -9.26,0 -14.33,5.32 -15.85,12.42 -1.4,6.21 -1.4,13.82 -1.4,26.12 0,4.95 0,11.29 0.89,16.36 1.01,5.7 4.69,15.21 16.61,15.21 6.59,0 12.42,-1.65 18.51,-11.92l0.76 0 0 10.91 16.74 0 0 -93.07 -18.01 0 0 34.11 -0.63 0zm0.63 39.05c-1.64,1.78 -4.82,5.2 -10.01,5.2 -3.05,0 -5.96,-1.27 -6.85,-6.85 -0.38,-2.53 -0.38,-7.35 -0.38,-15.72 0,-11.16 0,-17.75 6.85,-17.75 4.43,0 8.87,3.68 10.39,5.07l0 30.05zm36.27 19.91l19.4 0 0 -19.91 -19.4 0 0 19.91z"/>
   <g>
    <g>
     <polygon class="fil2" points="1013.71,376.66 918.16,447.29 574.74,447.29 631.51,379.43 "/>
     <polygon class="fil3" points="506.88,0 631.51,379.43 574.74,447.29 506.88,224.34 "/>
     <polygon class="fil3" points="192.54,965.2 324.09,792.1 389.18,576.07 310.25,605.15 "/>
     <polygon class="fil2" points="216.08,447.29 389.18,576.07 310.25,605.15 95.6,447.29 "/>
     <polygon class="fil3" points="-0,376.66 95.55,447.29 438.98,447.29 382.2,379.43 "/>
     <polygon class="fil2" points="506.83,0 382.2,379.43 438.98,447.29 506.83,224.34 "/>
    </g>
    <polygon class="fil4" points="686.47,311.11 652.73,310.63 679.82,330.59 669.84,363.38 696.92,343.9 725.44,363.86 714.98,330.59 742.55,310.63 708.81,311.11 697.4,277.37 "/>
    <polygon class="fil5" points="791.49,311.11 757.75,310.63 784.84,330.59 774.86,363.38 801.95,343.9 830.46,363.86 820,330.59 847.57,310.63 813.83,311.11 802.42,277.37 "/>
    <polygon class="fil6" points="889.2,311.11 855.46,310.63 882.55,330.59 872.57,363.38 899.66,343.9 928.17,363.86 917.72,330.59 945.28,310.63 911.54,311.11 900.13,277.37 "/>
    <polygon class="fil7" points="330.49,311.11 364.23,310.63 337.15,330.59 347.13,363.38 320.04,343.9 291.53,363.86 301.98,330.59 274.42,310.63 308.16,311.11 319.56,277.37 "/>
    <polygon class="fil8" points="225.47,311.11 259.21,310.63 232.13,330.59 242.11,363.38 215.02,343.9 186.51,363.86 196.96,330.59 169.4,310.63 203.14,311.11 214.54,277.37 "/>
    <polygon class="fil9" points="127.76,311.11 161.5,310.63 134.42,330.59 144.39,363.38 117.31,343.9 88.79,363.86 99.25,330.59 71.69,310.63 105.43,311.11 116.83,277.37 "/>
   </g>
  </g>
 </g>
</svg>
